<mxfile host="app.diagrams.net" modified="2024-05-03T04:02:07.518Z" agent="Mozilla/5.0 (Windows NT 10.0; Win64; x64) AppleWebKit/537.36 (KHTML, like Gecko) Chrome/124.0.0.0 Safari/537.36" etag="wQ36aM4R4l9zCyqFxlro" version="24.3.1" type="device">
  <diagram name="PÃ¡gina-1" id="n0UgGHb3SWpLabM3e7FU">
    <mxGraphModel dx="913" dy="613" grid="1" gridSize="10" guides="1" tooltips="1" connect="1" arrows="1" fold="1" page="1" pageScale="1" pageWidth="827" pageHeight="1169" math="0" shadow="0">
      <root>
        <mxCell id="0" />
        <mxCell id="1" parent="0" />
        <mxCell id="etPBZE6zym6e2e91FmV_-5" style="edgeStyle=orthogonalEdgeStyle;rounded=0;orthogonalLoop=1;jettySize=auto;html=1;" edge="1" parent="1" source="etPBZE6zym6e2e91FmV_-1">
          <mxGeometry relative="1" as="geometry">
            <mxPoint x="414" y="130" as="targetPoint" />
          </mxGeometry>
        </mxCell>
        <mxCell id="etPBZE6zym6e2e91FmV_-1" value="Proceso calculador_dem_minutos_a_horas" style="ellipse;whiteSpace=wrap;html=1;fillColor=#ffe6cc;strokeColor=#d79b00;" vertex="1" parent="1">
          <mxGeometry x="293" y="30" width="242" height="50" as="geometry" />
        </mxCell>
        <mxCell id="etPBZE6zym6e2e91FmV_-15" style="edgeStyle=orthogonalEdgeStyle;rounded=0;orthogonalLoop=1;jettySize=auto;html=1;exitX=0.5;exitY=1;exitDx=0;exitDy=0;" edge="1" parent="1" source="etPBZE6zym6e2e91FmV_-14">
          <mxGeometry relative="1" as="geometry">
            <mxPoint x="414" y="200" as="targetPoint" />
          </mxGeometry>
        </mxCell>
        <mxCell id="etPBZE6zym6e2e91FmV_-14" value="Definir minutos, horaExacta Como Entero" style="rounded=0;whiteSpace=wrap;html=1;fillColor=#f0a30a;fontColor=#000000;strokeColor=#BD7000;" vertex="1" parent="1">
          <mxGeometry x="296" y="120" width="236" height="20" as="geometry" />
        </mxCell>
        <mxCell id="etPBZE6zym6e2e91FmV_-21" value="" style="edgeStyle=orthogonalEdgeStyle;rounded=0;orthogonalLoop=1;jettySize=auto;html=1;" edge="1" parent="1" source="etPBZE6zym6e2e91FmV_-16" target="etPBZE6zym6e2e91FmV_-20">
          <mxGeometry relative="1" as="geometry" />
        </mxCell>
        <mxCell id="etPBZE6zym6e2e91FmV_-16" value="Definir horas, minutosExactos Como Real" style="rounded=0;whiteSpace=wrap;html=1;fillColor=#f0a30a;fontColor=#000000;strokeColor=#BD7000;" vertex="1" parent="1">
          <mxGeometry x="301" y="170" width="226" height="20" as="geometry" />
        </mxCell>
        <mxCell id="etPBZE6zym6e2e91FmV_-24" value="" style="edgeStyle=orthogonalEdgeStyle;rounded=0;orthogonalLoop=1;jettySize=auto;html=1;" edge="1" parent="1" source="etPBZE6zym6e2e91FmV_-20" target="etPBZE6zym6e2e91FmV_-23">
          <mxGeometry relative="1" as="geometry" />
        </mxCell>
        <mxCell id="etPBZE6zym6e2e91FmV_-20" value="&lt;br&gt;&#39;hola, ingresa una cantidad de minutos para convertirlos a horas y minutos exactos.&#39;" style="shape=parallelogram;perimeter=parallelogramPerimeter;whiteSpace=wrap;html=1;fixedSize=1;rounded=0;fillColor=#d5e8d4;strokeColor=#82b366;" vertex="1" parent="1">
          <mxGeometry x="164" y="240" width="500" height="30" as="geometry" />
        </mxCell>
        <mxCell id="etPBZE6zym6e2e91FmV_-26" value="" style="edgeStyle=orthogonalEdgeStyle;rounded=0;orthogonalLoop=1;jettySize=auto;html=1;" edge="1" parent="1" source="etPBZE6zym6e2e91FmV_-23" target="etPBZE6zym6e2e91FmV_-25">
          <mxGeometry relative="1" as="geometry" />
        </mxCell>
        <mxCell id="etPBZE6zym6e2e91FmV_-23" value="minutos" style="shape=parallelogram;perimeter=parallelogramPerimeter;whiteSpace=wrap;html=1;fixedSize=1;rounded=0;fillColor=#f8cecc;strokeColor=#b85450;" vertex="1" parent="1">
          <mxGeometry x="376" y="300" width="76" height="25" as="geometry" />
        </mxCell>
        <mxCell id="etPBZE6zym6e2e91FmV_-31" value="" style="edgeStyle=orthogonalEdgeStyle;rounded=0;orthogonalLoop=1;jettySize=auto;html=1;" edge="1" parent="1" source="etPBZE6zym6e2e91FmV_-25" target="etPBZE6zym6e2e91FmV_-30">
          <mxGeometry relative="1" as="geometry" />
        </mxCell>
        <mxCell id="etPBZE6zym6e2e91FmV_-25" value="horas &lt;- minutos/60" style="whiteSpace=wrap;html=1;rounded=0;fillColor=#f0a30a;fontColor=#000000;strokeColor=#BD7000;" vertex="1" parent="1">
          <mxGeometry x="356" y="360" width="116" height="22.5" as="geometry" />
        </mxCell>
        <mxCell id="etPBZE6zym6e2e91FmV_-33" value="" style="edgeStyle=orthogonalEdgeStyle;rounded=0;orthogonalLoop=1;jettySize=auto;html=1;" edge="1" parent="1" source="etPBZE6zym6e2e91FmV_-30" target="etPBZE6zym6e2e91FmV_-32">
          <mxGeometry relative="1" as="geometry" />
        </mxCell>
        <mxCell id="etPBZE6zym6e2e91FmV_-30" value="horaExacta &lt;- trunc(horas" style="whiteSpace=wrap;html=1;rounded=0;fillColor=#f0a30a;fontColor=#000000;strokeColor=#BD7000;" vertex="1" parent="1">
          <mxGeometry x="341" y="420" width="146" height="26.25" as="geometry" />
        </mxCell>
        <mxCell id="etPBZE6zym6e2e91FmV_-35" value="" style="edgeStyle=orthogonalEdgeStyle;rounded=0;orthogonalLoop=1;jettySize=auto;html=1;" edge="1" parent="1" source="etPBZE6zym6e2e91FmV_-32" target="etPBZE6zym6e2e91FmV_-34">
          <mxGeometry relative="1" as="geometry" />
        </mxCell>
        <mxCell id="etPBZE6zym6e2e91FmV_-32" value="minutosExactos &lt;- (horas-horaExacta)*60" style="whiteSpace=wrap;html=1;rounded=0;fillColor=#f0a30a;strokeColor=#BD7000;fontColor=#000000;" vertex="1" parent="1">
          <mxGeometry x="301" y="490" width="226" height="20.62" as="geometry" />
        </mxCell>
        <mxCell id="etPBZE6zym6e2e91FmV_-34" value="&#39;Entonces corresponde a: &#39;, horaExacta, &#39; horas y &#39;, minutosExactos, &#39; minutos&#39;" style="shape=parallelogram;perimeter=parallelogramPerimeter;whiteSpace=wrap;html=1;fixedSize=1;rounded=0;fillColor=#d5e8d4;strokeColor=#82b366;" vertex="1" parent="1">
          <mxGeometry x="191" y="540" width="446" height="29.07" as="geometry" />
        </mxCell>
        <mxCell id="etPBZE6zym6e2e91FmV_-38" value="FinProceso" style="ellipse;whiteSpace=wrap;html=1;fillColor=#ffe6cc;strokeColor=#d79b00;" vertex="1" parent="1">
          <mxGeometry x="377" y="600" width="74" height="30" as="geometry" />
        </mxCell>
        <mxCell id="etPBZE6zym6e2e91FmV_-40" value="" style="endArrow=classic;html=1;rounded=0;entryX=0.5;entryY=0;entryDx=0;entryDy=0;exitX=0.5;exitY=1;exitDx=0;exitDy=0;" edge="1" parent="1" source="etPBZE6zym6e2e91FmV_-34" target="etPBZE6zym6e2e91FmV_-38">
          <mxGeometry width="50" height="50" relative="1" as="geometry">
            <mxPoint x="414" y="600" as="sourcePoint" />
            <mxPoint x="430" y="670" as="targetPoint" />
          </mxGeometry>
        </mxCell>
      </root>
    </mxGraphModel>
  </diagram>
</mxfile>
